# xmcd CD database file
#
# Track frame offsets:
#	150
#	13205
#	24617
#	42285
#	57532
#	69427
#	90400
#	105955
#	129152
#	141930
#	157927
#
# Disc length: 2380 seconds
#
# Revision: 2
# Processed by: cddbd v1.5.2PL0 Copyright (c) Steve Scherf et al.
# Submitted via: CDex 1.70beta2
#
DISCID=87094a0b
DTITLE=Janet Kay - Dub Dem Silly +3
DYEAR=1996
DGENRE=Dub
TTITLE0=Riddim Rocker
TTITLE1=Do You Dub Me
TTITLE2=Can't Dub It Up
TTITLE3=Night Dubbin'
TTITLE4=Capricorn Woman
TTITLE5=Silly Dub
TTITLE6=Images Of DUb
TTITLE7=Dub Feel Away
TTITLE8=Do Yah Marimba
TTITLE9=Bonite
TTITLE10=Seen Isle(Feat.Johnny T)
EXTD=YEAR: 1996
EXTT0=
EXTT1=
EXTT2=
EXTT3=
EXTT4=
EXTT5=
EXTT6=
EXTT7=
EXTT8=
EXTT9=
EXTT10=
PLAYORDER=
